<svg viewBox="0 0 203.5 234.51" xmlns="http://www.w3.org/2000/svg" xmlns:xlink="http://www.w3.org/1999/xlink" id="Isolation_Mode" overflow="hidden"><style>
.MsftOfcThm_Background1_Fill_v2 {
 fill:#FFFFFF; 
}
</style>
<defs></defs><path d="M101.75 234.51C100.98 234.51 100.32 233.95 100.2 233.19L85.72 145.03 2.14 176.57C1.42 176.84 0.61 176.55 0.22 175.88-0.17 175.21-0.01 174.36 0.59 173.87L69.68 117.26 0.58 60.64C-0.02 60.15-0.17 59.3 0.21 58.63 0.6 57.96 1.41 57.67 2.13 57.94L85.71 89.48 100.19 1.32C100.31 0.56 100.97 0 101.74 0 102.51 0 103.17 0.56 103.29 1.32L117.77 89.48 201.35 57.94C202.07 57.67 202.88 57.96 203.27 58.63 203.66 59.3 203.5 60.15 202.9 60.64L133.82 117.26 202.92 173.87C203.52 174.36 203.67 175.21 203.29 175.88 202.9 176.55 202.09 176.84 201.37 176.57L117.79 145.03 103.31 233.19C103.18 233.95 102.52 234.51 101.75 234.51Z" class="MsftOfcThm_Background1_Fill_v2" stroke-width="3.33333" fill="#FFFFFF"/></svg>